<svg xmlns="http://www.w3.org/2000/svg" xmlns:xlink="http://www.w3.org/1999/xlink" width="500" zoomAndPan="magnify" viewBox="0 0 375 374.999991" height="500" preserveAspectRatio="xMidYMid meet" version="1.2"><defs><clipPath id="031f0ed0cc"><path d="M 13.359375 0 L 361.359375 0 L 361.359375 375 L 13.359375 375 Z M 13.359375 0 "/></clipPath></defs><g id="8067ae716b"><g clip-rule="nonzero" clip-path="url(#031f0ed0cc)"><path style=" stroke:none;fill-rule:nonzero;fill:#02735e;fill-opacity:1;" d="M 104.039062 366.613281 L 115.117188 366.613281 C 125.5625 366.613281 130.828125 360.710938 130.828125 348.722656 L 130.828125 150.839844 L 105.761719 150.839844 L 105.761719 142.757812 L 130.828125 142.757812 L 130.828125 62.480469 L 165.429688 78.191406 L 165.429688 142.851562 L 176.78125 142.851562 L 176.78125 150.933594 L 165.429688 150.933594 L 165.429688 329.199219 C 165.429688 341.824219 160.707031 352.539062 151.171875 361.4375 C 141.632812 370.246094 129.648438 374.695312 115.117188 374.695312 L 104.039062 374.695312 Z M 270.679688 374.605469 L 259.601562 374.605469 C 245.070312 374.605469 233.085938 370.15625 223.546875 361.347656 C 214.011719 352.539062 209.289062 341.730469 209.289062 329.109375 L 209.289062 150.839844 L 197.9375 150.839844 L 197.9375 142.757812 L 209.289062 142.757812 L 209.289062 78.191406 L 243.890625 62.480469 L 243.890625 142.757812 L 268.957031 142.757812 L 268.957031 150.839844 L 243.890625 150.839844 L 243.890625 348.722656 C 243.890625 360.621094 249.15625 366.613281 259.601562 366.613281 L 270.679688 366.613281 Z M 187.3125 0 C 91.414062 0 13.40625 78.007812 13.40625 173.90625 C 13.40625 246.195312 57.722656 308.3125 120.65625 334.558594 L 120.65625 310.671875 C 70.074219 285.882812 35.199219 233.9375 35.199219 173.90625 C 35.199219 90.085938 103.492188 21.796875 187.3125 21.796875 C 271.136719 21.796875 339.425781 90.085938 339.425781 173.90625 C 339.425781 233.84375 304.554688 285.882812 253.972656 310.582031 L 253.972656 334.464844 C 316.90625 308.222656 361.222656 246.105469 361.222656 173.816406 C 361.3125 78.007812 283.304688 0 187.3125 0 Z M 187.3125 0 "/></g></g></svg>